<?xml version="1.0" encoding="utf-8"?>
<!-- Svg Vector Icons : http://www.onlinewebfonts.com/icon -->
<!DOCTYPE svg PUBLIC "-//W3C//DTD SVG 1.1//EN" "http://www.w3.org/Graphics/SVG/1.1/DTD/svg11.dtd">
<svg version="1.1" xmlns="http://www.w3.org/2000/svg" xmlns:xlink="http://www.w3.org/1999/xlink" x="0px" y="0px" viewBox="0 0 256 256" enable-background="new 0 0 256 256" xml:space="preserve">
<metadata> Svg Vector Icons : http://www.onlinewebfonts.com/icon </metadata>
<g><g><g><path fill="#000000" d="M115.8,10.5C94.1,12.8,71.7,22,54,36c-24.2,19.2-40.5,49.3-43.5,80.6c-3.4,35,9.2,70.2,34,94.9c36.4,36.1,91.2,44.8,136.8,21.7c11.5-5.9,21.1-12.7,30-21.8c46.1-46,46.1-120.8,0-166.9C186.4,19.5,151.2,7,115.8,10.5z M170.7,68.2c3.4,0.8,8.9,3.5,11.6,5.9l2.2,1.9v32.8v32.8l-1.5-1.4c-2.7-2.5-6.9-4.9-10.9-6.1c-3.1-0.9-4.7-1.1-9.1-0.8c-6.8,0.4-9.6,1.3-23.9,8.1c-16.4,7.9-23.3,9.8-30.8,8.4c-4-0.7-10.3-3.7-13.4-6.4l-2.4-2.1v-32.4c0-17.8,0.2-32.4,0.3-32.4c0.2,0,1.3,0.8,2.5,1.9c2.9,2.5,8.3,5,12.4,5.9c7.5,1.6,15.1-0.3,29.3-7.4c10.1-5,15.9-7.3,20.2-8.4C161.1,67.5,167.3,67.4,170.7,68.2z M83.1,75.8c1.1,1.4,1.1,2.2,1,58.2l-0.2,56.8l-1.3,1.1c-1.7,1.4-3.8,1.3-5.4-0.2l-1.3-1.2v-56.7c0-31.2,0.2-57.1,0.3-57.6c0.5-1.2,3.3-2.4,4.8-2.1C81.6,74.2,82.5,75,83.1,75.8z"/></g></g></g>
</svg>