<?xml version="1.0" encoding="utf-8"?>
<!-- Svg Vector Icons : http://www.onlinewebfonts.com/icon -->
<!DOCTYPE svg PUBLIC "-//W3C//DTD SVG 1.1//EN" "http://www.w3.org/Graphics/SVG/1.1/DTD/svg11.dtd">
<svg version="1.1" xmlns="http://www.w3.org/2000/svg" xmlns:xlink="http://www.w3.org/1999/xlink" x="0px" y="0px" viewBox="0 0 256 256" enable-background="new 0 0 256 256" xml:space="preserve">
<metadata> Svg Vector Icons : http://www.onlinewebfonts.com/icon </metadata>
<g><g><g><path fill="#000000" d="M130.6,6.7c-9,0.9-12.3,1.4-18.4,2.6c-44.9,9.1-80.2,40.8-95,85.4c-6.6,20.1-8.7,40.5-6.1,61c2.4,19.5,9.8,38,21.1,52.6c20.5,26.4,52,41.1,88.2,41.1c17.6,0,33.2-2.2,47.2-6.8c6.9-2.2,7.9-2.7,9.7-4.5c3.2-3.1,4-7.7,2-11.8c-1.3-2.8-2.2-3.7-5-5c-3.1-1.4-4.8-1.2-11.8,0.9c-11.7,3.7-23.2,5.3-36.4,5.3c-23.3,0-42.1-5.9-57.9-18.1c-16.9-13.1-27.2-32.5-30.8-58c-0.8-5.6-0.8-24.3,0-30.7c6.3-50.9,40.9-87,88.7-92.5c6.3-0.7,22-0.3,28.1,0.8c18.5,3.1,32,9.8,43.6,21.4c10.9,11,17,22.5,20.5,39.1c1,4.8,1.3,7.5,1.5,16.1c0.3,11-0.1,16.9-1.8,24.7c-4.2,19.4-14.3,33.2-26.9,36.5c-9.3,2.4-14.3-2-14.9-12.9c-0.3-6.1,0-8.8,4.7-37.4c5.3-32.7,5.2-31.7,4.7-34.9c-1.2-7.7-7-13.4-15.4-15.2c-30.4-6.7-59.1-0.2-79.2,18c-10.5,9.5-18.7,23-23,37.7c-3.1,10.8-4,25.9-2,35.4c2,9.8,5.3,16.3,11.2,22.2c7.3,7.4,15.8,10.7,26.8,10.7c17.1,0,31.8-8,42.4-23c1.4-2,2.8-3.7,3.1-3.7c0.2,0,0.4,0.6,0.4,1.3c0,0.8,0.4,3,1,5c2.4,9.6,8.5,16,18.1,19c3.1,1,4.5,1.1,11.2,1.1c8.3,0,11.8-0.5,18.5-2.7c9.3-3,16.6-7.6,24-14.9c5.5-5.5,9.8-11.4,13.1-17.9c10.6-21.3,13.2-49.7,6.9-74.5C234.3,48,210.7,23,178.4,12.4c-6.6-2.1-15-4-22.1-5C152.4,6.8,134,6.4,130.6,6.7z M147.2,91.7c2,0.3,3.8,0.7,4,0.8c0.4,0.3-1.8,17.2-4.4,33.2c-2.5,15.3-11.2,29.4-21.3,34.5c-9,4.6-19,1.8-23.3-6.5c-1.6-3.2-2.4-7.5-2.4-13.4c0-9,2-17.2,6-25.2c2.5-5.1,4.6-8,8.4-11.9C123.6,93.7,134.7,89.9,147.2,91.7z"/></g></g></g>
</svg>