<?xml version="1.0" encoding="utf-8"?>
<!-- Svg Vector Icons : http://www.onlinewebfonts.com/icon -->
<!DOCTYPE svg PUBLIC "-//W3C//DTD SVG 1.1//EN" "http://www.w3.org/Graphics/SVG/1.1/DTD/svg11.dtd">
<svg version="1.1" xmlns="http://www.w3.org/2000/svg" xmlns:xlink="http://www.w3.org/1999/xlink" x="0px" y="0px" viewBox="0 0 256 256" enable-background="new 0 0 256 256" xml:space="preserve">
<metadata> Svg Vector Icons : http://www.onlinewebfonts.com/icon </metadata>
<g><g><g><path fill="#000000" d="M122.2,5.2c-25.7,4-41.9,14.6-45,29.5c-0.5,2.5-0.7,7.2-0.7,18.8V69l-2.4,0.8c-9.2,3-12.2,12.1-8.2,24.1c1.9,5.7,6.9,14.6,12.2,21.6c2.8,3.8,3.2,4.7,4.9,10.3c8.2,28.9,22.9,42.8,44.9,42.7c3.3,0,7.3-0.3,9.2-0.7c17.8-3.8,30.2-18.5,37-44.2c1-3.8,1.6-5,4.2-8.6c14.1-19.3,17.4-33.8,9.5-41.6c-1.4-1.4-3.2-2.6-4.7-3.1l-2.4-0.9l-0.2-16.7c-0.2-17.9-0.4-19.1-3-24.4c-5.7-11.3-22-19.9-43.6-23.1C127.9,4.4,127.7,4.4,122.2,5.2z M135.9,13.1c18.4,3.2,30.7,10,35.3,19.7l1.5,3.3v24.4c0,26.3-0.5,33.8-2.9,48.1c-2.2,12.6-4.5,20.8-8.6,29.3c-5.5,11.6-12.8,18.5-22.7,21.8c-3.4,1.1-4.6,1.3-10.4,1.3c-5.7,0-6.9-0.1-10.4-1.3c-14.9-4.9-24.7-19.6-29.7-44.2c-3.3-16.3-4.1-27.2-4.1-55.3c0-20.9,0.1-22.9,0.9-25.3c3.8-10.9,15.8-18.2,36.2-21.9C126.4,12,129.5,12.1,135.9,13.1z M76.6,82.5c0.5,7.7,1.3,16.6,1.5,18.2c0.4,2.1-0.4,1.1-2.6-3.4c-4.7-9.4-5.2-15.7-1.5-18.8c0.8-0.7,1.6-1.2,1.9-1.2C76.2,77.3,76.5,79.6,76.6,82.5z M183.2,79.9c1.4,1.9,1.6,5.9,0.3,10c-0.9,2.9-4.5,11-5,11c0,0,0.1-2.6,0.4-5.7c0.3-3.1,0.7-8.4,0.9-11.8c0.4-6.1,0.4-6.2,1.3-5.5C181.8,78.3,182.7,79.2,183.2,79.9z"/><path fill="#000000" d="M75.2,157.3c-37,14.4-60.1,47.1-65,92l-0.2,2.1h49.3h49.4l-2.2-4.6c-6.6-14-14-35.8-19.7-57.6c-2.1-8-6.1-25.5-6.8-29.7c-0.5-2.7-0.8-3.6-1.2-3.6C78.8,156,77.1,156.6,75.2,157.3z M75.4,172.8c4.4,20.9,13.3,50.6,20,66.5c1,2.2,1.7,4.1,1.7,4.2c0,0.1-17.7,0.1-39.4,0.1H18.5l0.3-2.3c2.2-15.3,10.7-35.4,19.9-47.5c3.1-4.1,10.3-11.4,14.4-14.8c7.1-5.8,20.3-13.3,21-12C74.3,167.4,74.9,170,75.4,172.8z"/><path fill="#000000" d="M176.6,156.7c-0.1,0.5-0.7,3.2-1.3,6.2c-5.9,30.1-17.9,68.6-26.8,86.2l-1.2,2.3h49.3H246l-0.2-2.1c-0.3-3.9-1.6-12.2-2.8-17c-8.4-35.7-29.7-61.8-60.4-74.2c-3-1.3-5.5-2.2-5.6-2.2C176.9,155.9,176.7,156.3,176.6,156.7z M186.5,168.5c22.7,11.4,38.5,30.8,46.9,57.4c1.7,5.4,4.1,15.3,4.1,16.9c0,0.8-2.2,0.9-38.9,0.9c-36.8,0-38.9,0-38.6-0.9c0.1-0.4,1.5-4.3,3.2-8.7c6.2-16.7,13.7-43.1,17.4-61.3c1.2-5.7,1.3-6.3,1.7-6.3C182.4,166.5,184.3,167.4,186.5,168.5z"/><path fill="#000000" d="M119.1,177.2c0.1,0.3,1.5,4.7,3.1,9.6l2.8,9l-3.1,9.6l-3.1,9.6l6.1,12.6l6.1,12.6l5.3-10.8c2.9-5.9,5.6-11.6,6.1-12.7l0.9-1.9l-3-9.6l-3.1-9.6l3.1-9.6l3.1-9.6h-12.2C121.6,176.7,119,176.8,119.1,177.2z"/></g></g></g>
</svg>